<?xml version="1.0" encoding="UTF-8" standalone="no" ?>
<!DOCTYPE svg PUBLIC "-//W3C//DTD SVG 1.1//EN" "http://www.w3.org/Graphics/SVG/1.1/DTD/svg11.dtd">
<svg xmlns="http://www.w3.org/2000/svg" xmlns:xlink="http://www.w3.org/1999/xlink" version="1.1" width="500" height="500" viewBox="0 0 500 500" xml:space="preserve">
<desc>Created with Fabric.js 4.6.0</desc>
<defs>
</defs>
<g transform="matrix(0.31 -0.12 0.01 0.03 144.23 296.09)" id="Qph6UaT_TWYUVO84By_4t"  >
<path style="stroke: rgb(204,179,150); stroke-width: 0; stroke-dasharray: none; stroke-linecap: butt; stroke-dashoffset: 0; stroke-linejoin: miter; stroke-miterlimit: 4; fill: rgb(0,0,0); fill-rule: nonzero; opacity: 1;" vector-effect="non-scaling-stroke"  transform=" translate(0, 0)" d="M -42.01681 -42.01681 L 42.016799999999996 -42.01681 L 42.016799999999996 42.016799999999996 L -42.01681 42.016799999999996 z" stroke-linecap="round" />
</g>
<g transform="matrix(0.26 -0.21 0.02 0.02 178.44 277.4)" id="a3kW5iaceZFKoJCX4ml7g"  >
<path style="stroke: rgb(204,179,150); stroke-width: 0; stroke-dasharray: none; stroke-linecap: butt; stroke-dashoffset: 0; stroke-linejoin: miter; stroke-miterlimit: 4; fill: rgb(0,0,0); fill-rule: nonzero; opacity: 1;" vector-effect="non-scaling-stroke"  transform=" translate(0, 0)" d="M -42.01681 -42.01681 L 42.016799999999996 -42.01681 L 42.016799999999996 42.016799999999996 L -42.01681 42.016799999999996 z" stroke-linecap="round" />
</g>
<g transform="matrix(0.17 -0.28 0.03 0.02 202.27 250.6)" id="De7HGbvWtVJ7oBM57fhug"  >
<path style="stroke: rgb(204,179,150); stroke-width: 0; stroke-dasharray: none; stroke-linecap: butt; stroke-dashoffset: 0; stroke-linejoin: miter; stroke-miterlimit: 4; fill: rgb(0,0,0); fill-rule: nonzero; opacity: 1;" vector-effect="non-scaling-stroke"  transform=" translate(0, 0)" d="M -42.01681 -42.01681 L 42.016799999999996 -42.01681 L 42.016799999999996 42.016799999999996 L -42.01681 42.016799999999996 z" stroke-linecap="round" />
</g>
<g transform="matrix(-0.01 -0.33 0.03 0 211.99 213.61)" id="HR6tJZ8TCf3moj-Nus3O2"  >
<path style="stroke: rgb(204,179,150); stroke-width: 0; stroke-dasharray: none; stroke-linecap: butt; stroke-dashoffset: 0; stroke-linejoin: miter; stroke-miterlimit: 4; fill: rgb(0,0,0); fill-rule: nonzero; opacity: 1;" vector-effect="non-scaling-stroke"  transform=" translate(0, 0)" d="M -42.01681 -42.01681 L 42.016799999999996 -42.01681 L 42.016799999999996 42.016799999999996 L -42.01681 42.016799999999996 z" stroke-linecap="round" />
</g>
<g transform="matrix(0.27 0.18 0.02 -0.02 197.14 184.19)" id="B-T4ac7-UBkcPx1ESWpP0"  >
<path style="stroke: rgb(204,179,150); stroke-width: 0; stroke-dasharray: none; stroke-linecap: butt; stroke-dashoffset: 0; stroke-linejoin: miter; stroke-miterlimit: 4; fill: rgb(0,0,0); fill-rule: nonzero; opacity: 1;" vector-effect="non-scaling-stroke"  transform=" translate(0, 0)" d="M -42.01681 -42.01681 L 42.016799999999996 -42.01681 L 42.016799999999996 42.016799999999996 L -42.01681 42.016799999999996 z" stroke-linecap="round" />
</g>
<g transform="matrix(0.24 -0.23 -0.02 -0.02 168.49 189.19)" id="K1egtH1NJTGrgHG-Yf5g6"  >
<path style="stroke: rgb(204,179,150); stroke-width: 0; stroke-dasharray: none; stroke-linecap: butt; stroke-dashoffset: 0; stroke-linejoin: miter; stroke-miterlimit: 4; fill: rgb(0,0,0); fill-rule: nonzero; opacity: 1;" vector-effect="non-scaling-stroke"  transform=" translate(0, 0)" d="M -42.01681 -42.01681 L 42.016799999999996 -42.01681 L 42.016799999999996 42.016799999999996 L -42.01681 42.016799999999996 z" stroke-linecap="round" />
</g>
<g transform="matrix(0.02 -0.33 -0.03 0 157.64 220.8)" id="6LmCkW958RxFWocLwmdsd"  >
<path style="stroke: rgb(204,179,150); stroke-width: 0; stroke-dasharray: none; stroke-linecap: butt; stroke-dashoffset: 0; stroke-linejoin: miter; stroke-miterlimit: 4; fill: rgb(0,0,0); fill-rule: nonzero; opacity: 1;" vector-effect="non-scaling-stroke"  transform=" translate(0, 0)" d="M -42.01681 -42.01681 L 42.016799999999996 -42.01681 L 42.016799999999996 42.016799999999996 L -42.01681 42.016799999999996 z" stroke-linecap="round" />
</g>
<g transform="matrix(-0.27 -0.19 -0.02 0.02 171.95 250.6)" id="0cDh643Na-VftA6GgwsCw"  >
<path style="stroke: rgb(204,179,150); stroke-width: 0; stroke-dasharray: none; stroke-linecap: butt; stroke-dashoffset: 0; stroke-linejoin: miter; stroke-miterlimit: 4; fill: rgb(0,0,0); fill-rule: nonzero; opacity: 1;" vector-effect="non-scaling-stroke"  transform=" translate(0, 0)" d="M -42.01681 -42.01681 L 42.016799999999996 -42.01681 L 42.016799999999996 42.016799999999996 L -42.01681 42.016799999999996 z" stroke-linecap="round" />
</g>
<g transform="matrix(-0.32 -0.07 -0.01 0.03 217.09 270.81)" id="Gklz1lUdUcvZqB4M1K1hF"  >
<path style="stroke: rgb(204,179,150); stroke-width: 0; stroke-dasharray: none; stroke-linecap: butt; stroke-dashoffset: 0; stroke-linejoin: miter; stroke-miterlimit: 4; fill: rgb(0,0,0); fill-rule: nonzero; opacity: 1;" vector-effect="non-scaling-stroke"  transform=" translate(0, 0)" d="M -42.01681 -42.01681 L 42.016799999999996 -42.01681 L 42.016799999999996 42.016799999999996 L -42.01681 42.016799999999996 z" stroke-linecap="round" />
</g>
<g transform="matrix(-0.32 0.06 0.01 0.03 253.7 271.57)" id="qNJkTF4CI8lOkirHxrmGb"  >
<path style="stroke: rgb(204,179,150); stroke-width: 0; stroke-dasharray: none; stroke-linecap: butt; stroke-dashoffset: 0; stroke-linejoin: miter; stroke-miterlimit: 4; fill: rgb(0,0,0); fill-rule: nonzero; opacity: 1;" vector-effect="non-scaling-stroke"  transform=" translate(0, 0)" d="M -42.01681 -42.01681 L 42.016799999999996 -42.01681 L 42.016799999999996 42.016799999999996 L -42.01681 42.016799999999996 z" stroke-linecap="round" />
</g>
<g transform="matrix(-0.29 0.15 0.01 0.03 291.07 260.27)" id="HajkGxi4Xkl_dmsZz1rtQ"  >
<path style="stroke: rgb(204,179,150); stroke-width: 0; stroke-dasharray: none; stroke-linecap: butt; stroke-dashoffset: 0; stroke-linejoin: miter; stroke-miterlimit: 4; fill: rgb(0,0,0); fill-rule: nonzero; opacity: 1;" vector-effect="non-scaling-stroke"  transform=" translate(0, 0)" d="M -42.01681 -42.01681 L 42.016799999999996 -42.01681 L 42.016799999999996 42.016799999999996 L -42.01681 42.016799999999996 z" stroke-linecap="round" />
</g>
<g transform="matrix(0.33 0.01 0 0.03 107.37 302.42)" id="3MQ57-huqTQC3DJf36h1W"  >
<path style="stroke: rgb(204,179,150); stroke-width: 0; stroke-dasharray: none; stroke-linecap: butt; stroke-dashoffset: 0; stroke-linejoin: miter; stroke-miterlimit: 4; fill: rgb(0,0,0); fill-rule: nonzero; opacity: 1;" vector-effect="non-scaling-stroke"  transform=" translate(0, 0)" d="M -42.01681 -42.01681 L 42.016799999999996 -42.01681 L 42.016799999999996 42.016799999999996 L -42.01681 42.016799999999996 z" stroke-linecap="round" />
</g>
<g transform="matrix(-0.41 -0.29 -0.02 0.02 308.9 197.07)" id="5eVDXlAR3YBQllwVp0mdj"  >
<path style="stroke: rgb(204,179,150); stroke-width: 0; stroke-dasharray: none; stroke-linecap: butt; stroke-dashoffset: 0; stroke-linejoin: miter; stroke-miterlimit: 4; fill: rgb(0,0,0); fill-rule: nonzero; opacity: 1;" vector-effect="non-scaling-stroke"  transform=" translate(0, 0)" d="M -42.01681 -42.01681 L 42.016799999999996 -42.01681 L 42.016799999999996 42.016799999999996 L -42.01681 42.016799999999996 z" stroke-linecap="round" />
</g>
<g transform="matrix(0.08 -0.49 -0.03 0 322.86 228.87)" id="IkzL4D1zXfv0YhngCKRR0"  >
<path style="stroke: rgb(204,179,150); stroke-width: 0; stroke-dasharray: none; stroke-linecap: butt; stroke-dashoffset: 0; stroke-linejoin: miter; stroke-miterlimit: 4; fill: rgb(0,0,0); fill-rule: nonzero; opacity: 1;" vector-effect="non-scaling-stroke"  transform=" translate(0, 0)" d="M -42.01681 -42.01681 L 42.016799999999996 -42.01681 L 42.016799999999996 42.016799999999996 L -42.01681 42.016799999999996 z" stroke-linecap="round" />
</g>
<g transform="matrix(0.21 -0.34 -0.02 -0.01 328.87 235.25)" id="k95ODIeKv_Bvw7yHrphuw"  >
<path style="stroke: rgb(204,179,150); stroke-width: 0; stroke-dasharray: none; stroke-linecap: butt; stroke-dashoffset: 0; stroke-linejoin: miter; stroke-miterlimit: 4; fill: rgb(0,0,0); fill-rule: nonzero; opacity: 1;" vector-effect="non-scaling-stroke"  transform=" translate(0, 0)" d="M -42.01681 -42.01681 L 42.016799999999996 -42.01681 L 42.016799999999996 42.016799999999996 L -42.01681 42.016799999999996 z" stroke-linecap="round" />
</g>
<g transform="matrix(-0.41 -0.29 -0.02 0.02 353.96 232.42)" id="AQnqSYV45ubPx46jT6CTC"  >
<path style="stroke: rgb(204,179,150); stroke-width: 0; stroke-dasharray: none; stroke-linecap: butt; stroke-dashoffset: 0; stroke-linejoin: miter; stroke-miterlimit: 4; fill: rgb(0,0,0); fill-rule: nonzero; opacity: 1;" vector-effect="non-scaling-stroke"  transform=" translate(0, 0)" d="M -42.01681 -42.01681 L 42.016799999999996 -42.01681 L 42.016799999999996 42.016799999999996 L -42.01681 42.016799999999996 z" stroke-linecap="round" />
</g>
<g transform="matrix(-0.79 1.12 0.02 0.01 401.61 197.37)" id="ung0yVwvQjZjgx6DKRbn-"  >
<path style="stroke: rgb(204,179,150); stroke-width: 0; stroke-dasharray: none; stroke-linecap: butt; stroke-dashoffset: 0; stroke-linejoin: miter; stroke-miterlimit: 4; fill: rgb(0,0,0); fill-rule: nonzero; opacity: 1;" vector-effect="non-scaling-stroke"  transform=" translate(0, 0)" d="M -42.01681 -42.01681 L 42.016799999999996 -42.01681 L 42.016799999999996 42.016799999999996 L -42.01681 42.016799999999996 z" stroke-linecap="round" />
</g>
<g transform="matrix(-1.7 0.42 0.01 0.03 363.4 167.47)" id="NGF9Ydg7P1LsT8yAYrmIa"  >
<path style="stroke: rgb(204,179,150); stroke-width: 0; stroke-dasharray: none; stroke-linecap: butt; stroke-dashoffset: 0; stroke-linejoin: miter; stroke-miterlimit: 4; fill: rgb(0,0,0); fill-rule: nonzero; opacity: 1;" vector-effect="non-scaling-stroke"  transform=" translate(0, 0)" d="M -42.01681 -42.01681 L 42.016799999999996 -42.01681 L 42.016799999999996 42.016799999999996 L -42.01681 42.016799999999996 z" stroke-linecap="round" />
</g>
<g transform="matrix(1.13 -0.82 -0.02 -0.02 385.33 186.51)" id="_MJ74IAYbNezFMGD08jeS"  >
<path style="stroke: rgb(204,179,150); stroke-width: 0; stroke-dasharray: none; stroke-linecap: butt; stroke-dashoffset: 0; stroke-linejoin: miter; stroke-miterlimit: 4; fill: rgb(0,0,0); fill-rule: nonzero; opacity: 1;" vector-effect="non-scaling-stroke"  transform=" translate(0, 0)" d="M -42.01681 -42.01681 L 42.016799999999996 -42.01681 L 42.016799999999996 42.016799999999996 L -42.01681 42.016799999999996 z" stroke-linecap="round" />
</g>
<g transform="matrix(1.28 -0.68 -0.01 -0.03 378.61 179.58)" id="DL-UoDlb2F80X2Sf9OUEI"  >
<path style="stroke: rgb(204,179,150); stroke-width: 0; stroke-dasharray: none; stroke-linecap: butt; stroke-dashoffset: 0; stroke-linejoin: miter; stroke-miterlimit: 4; fill: rgb(0,0,0); fill-rule: nonzero; opacity: 1;" vector-effect="non-scaling-stroke"  transform=" translate(0, 0)" d="M -42.01681 -42.01681 L 42.016799999999996 -42.01681 L 42.016799999999996 42.016799999999996 L -42.01681 42.016799999999996 z" stroke-linecap="round" />
</g>
<g transform="matrix(0.32 0.07 -0.01 0.03 68.63 298.07)" id="V8b0yJ3a5OWP55FZ2IJT3"  >
<path style="stroke: rgb(204,179,150); stroke-width: 0; stroke-dasharray: none; stroke-linecap: butt; stroke-dashoffset: 0; stroke-linejoin: miter; stroke-miterlimit: 4; fill: rgb(0,0,0); fill-rule: nonzero; opacity: 1;" vector-effect="non-scaling-stroke"  transform=" translate(0, 0)" d="M -42.01681 -42.01681 L 42.016799999999996 -42.01681 L 42.016799999999996 42.016799999999996 L -42.01681 42.016799999999996 z" stroke-linecap="round" />
</g>
</svg>